<svg width="875" height="155" viewBox="0 0 875 155" fill="none" xmlns="http://www.w3.org/2000/svg">
<path d="M70 140.917L70 60C70 35.8104 87.1776 15.6329 110 11.0002L110 91.9175C110 116.107 92.8224 136.285 70 140.917Z" stroke="white" stroke-width="20"/>
<path d="M50 140.917L50 60.0001C50 35.8105 32.8224 15.633 10 11.0003L10 91.9176C9.99999 116.107 27.1776 136.285 50 140.917Z" stroke="white" stroke-width="20"/>
<path d="M146.591 152L172.943 2.70312H233.852C248.549 2.70312 258.734 6.01855 264.408 12.6494C270.15 19.2119 271.928 28.4404 269.74 40.335C268.305 48.9482 265.297 56.0918 260.717 61.7656C256.137 67.3711 250.702 71.2334 244.413 73.3525V73.7627C251.317 75.54 256.615 79.4365 260.307 85.4521C264.066 91.4678 264.989 99.8076 263.075 110.472C260.751 123.46 254.872 133.646 245.438 141.028C236.005 148.343 224.11 152 209.755 152H146.591ZM186.171 128.006H204.32C210.678 128.006 215.736 126.126 219.496 122.366C223.256 118.538 225.717 113.445 226.879 107.088C227.973 100.594 227.323 95.3984 224.931 91.502C222.538 87.6055 218.163 85.6572 211.806 85.6572H193.656L186.171 128.006ZM196.938 66.8926H213.241C219.394 66.8926 224.145 65.1494 227.494 61.6631C230.844 58.1768 233.1 53.2891 234.262 47C235.355 40.7109 234.809 35.96 232.621 32.7471C230.434 29.4658 226.298 27.8252 220.214 27.8252H203.91L196.938 66.8926ZM262.439 125.032C264.148 115.735 269.207 108.284 277.615 102.679C286.092 97.0732 296.619 94.2705 309.197 94.2705H333.396L334.422 88.2207C335.174 83.9824 334.729 80.7695 333.089 78.582C331.448 76.3262 328.338 75.1982 323.758 75.1982C319.314 75.1982 315.691 76.1553 312.889 78.0693C310.154 79.9834 308.479 82.752 307.864 86.375L307.454 88.5283L275.462 88.3232L275.975 85.7598C277.547 76.7363 283.118 69.4902 292.688 64.0215C302.327 58.5527 314.7 55.8184 329.808 55.8184C345.188 55.8184 356.16 58.4844 362.723 63.8164C369.285 69.1484 371.507 77.7959 369.388 89.7588L362.21 130.364C361.526 134.261 361.185 137.952 361.185 141.438C361.253 144.925 361.766 147.967 362.723 150.564L362.518 152H327.757C326.937 150.291 326.424 148.309 326.219 146.053C326.014 143.797 326.014 141.404 326.219 138.875C323.211 142.566 318.597 145.916 312.376 148.924C306.224 151.863 298.841 153.333 290.228 153.333C279.974 153.333 272.386 150.94 267.464 146.155C262.542 141.37 260.867 134.329 262.439 125.032ZM297.61 122.571C296.927 126.468 297.542 129.407 299.456 131.39C301.37 133.304 304.378 134.261 308.479 134.261C312.991 134.261 317.366 132.654 321.604 129.441C325.911 126.16 328.406 122.503 329.09 118.47L330.73 111.395H318.118C311.966 111.395 307.181 112.215 303.763 113.855C300.413 115.496 298.362 118.401 297.61 122.571ZM369.982 152L396.335 2.70312H431.916L405.563 152H369.982ZM417.438 125.032C419.146 115.735 424.205 108.284 432.613 102.679C441.09 97.0732 451.617 94.2705 464.195 94.2705H488.395L489.42 88.2207C490.172 83.9824 489.728 80.7695 488.087 78.582C486.446 76.3262 483.336 75.1982 478.756 75.1982C474.312 75.1982 470.689 76.1553 467.887 78.0693C465.152 79.9834 463.478 82.752 462.862 86.375L462.452 88.5283L430.46 88.3232L430.973 85.7598C432.545 76.7363 438.116 69.4902 447.687 64.0215C457.325 58.5527 469.698 55.8184 484.806 55.8184C500.187 55.8184 511.158 58.4844 517.721 63.8164C524.283 69.1484 526.505 77.7959 524.386 89.7588L517.208 130.364C516.524 134.261 516.183 137.952 516.183 141.438C516.251 144.925 516.764 147.967 517.721 150.564L517.516 152H482.755C481.935 150.291 481.422 148.309 481.217 146.053C481.012 143.797 481.012 141.404 481.217 138.875C478.209 142.566 473.595 145.916 467.374 148.924C461.222 151.863 453.839 153.333 445.226 153.333C434.972 153.333 427.384 150.94 422.462 146.155C417.54 141.37 415.865 134.329 417.438 125.032ZM452.608 122.571C451.925 126.468 452.54 129.407 454.454 131.39C456.368 133.304 459.376 134.261 463.478 134.261C467.989 134.261 472.364 132.654 476.603 129.441C480.909 126.16 483.404 122.503 484.088 118.47L485.729 111.395H473.116C466.964 111.395 462.179 112.215 458.761 113.855C455.411 115.496 453.36 118.401 452.608 122.571ZM524.98 152L541.489 58.2793H576.353L574.097 71.3018H574.302C577.515 66.585 581.992 62.8252 587.734 60.0225C593.545 57.1514 600.347 55.7158 608.14 55.7158C617.847 55.7158 625.195 58.3818 630.186 63.7139C635.244 69.0459 636.714 77.7617 634.595 89.8613L623.623 152H588.35L598.193 96.5264C599.082 91.1943 598.604 87.4004 596.758 85.1445C594.98 82.8203 592.075 81.6582 588.042 81.6582C584.556 81.6582 581.274 82.7178 578.198 84.8369C575.19 86.9561 572.627 89.7246 570.508 93.1426L560.151 152H524.98ZM637.855 106.473L638.471 103.089C641.137 88.1182 647.836 76.4287 658.568 68.0205C669.369 59.5439 682.665 55.3057 698.456 55.3057C714.315 55.3057 725.937 58.5869 733.319 65.1494C740.702 71.7119 743.505 81.3848 741.728 94.168L741.42 96.4238H707.377L707.685 95.0908C708.505 90.374 707.855 86.6826 705.736 84.0166C703.686 81.3506 700.233 80.0176 695.38 80.0176C689.843 80.0176 685.229 81.8975 681.537 85.6572C677.914 89.3486 675.487 94.7832 674.257 101.961L673.231 107.498C672.001 114.539 672.514 120.076 674.77 124.109C677.025 128.074 680.922 130.057 686.459 130.057C691.518 130.057 695.517 128.758 698.456 126.16C701.464 123.494 703.412 119.837 704.301 115.188L704.608 113.753H738.446L738.036 116.111C735.575 128.553 729.457 138.055 719.682 144.617C709.906 151.111 697.089 154.358 681.229 154.358C665.438 154.358 653.612 150.086 645.751 141.541C637.89 132.996 635.258 121.307 637.855 106.473ZM742.015 106.37L742.527 103.089C745.125 88.5283 751.927 76.9414 762.933 68.3281C773.938 59.7148 787.508 55.4082 803.641 55.4082C819.363 55.4082 830.711 59.5781 837.684 67.918C844.656 76.1895 846.878 87.5713 844.349 102.063L843.323 111.292H760.164L761.702 94.168H811.023L811.229 93.5527C812.049 89.4512 811.536 86.0674 809.69 83.4014C807.845 80.7354 804.29 79.4023 799.026 79.4023C793.353 79.4023 788.704 81.3848 785.081 85.3496C781.526 89.3145 779.1 93.9629 777.801 99.2949L776.98 106.575C775.682 114.163 776.229 120.008 778.621 124.109C781.082 128.143 785.252 130.159 791.131 130.159C795.574 130.159 799.402 129.305 802.615 127.596C805.828 125.818 808.494 123.392 810.613 120.315L839.222 127.493C834.642 135.97 828.182 142.566 819.842 147.283C811.502 152 800.599 154.358 787.132 154.358C770.11 154.358 757.669 150.086 749.808 141.541C741.946 132.996 739.349 121.272 742.015 106.37Z" fill="white"/>
</svg>
